<svg width="512" height="512" viewBox="0 0 512 512" fill="none" xmlns="http://www.w3.org/2000/svg">
<path d="M253.536 0.0258133V222.417H251.082C243.048 160.912 213.155 104.449 166.967 63.5382C120.778 22.6278 61.4415 0.0565351 0 0.0258133V511.97C61.4365 511.95 120.773 489.391 166.963 448.489C213.152 407.587 243.047 351.13 251.082 289.63H253.536V511.97C287.131 512.452 320.485 506.184 351.66 493.538C382.836 480.891 411.211 462.113 435.136 438.296C459.061 414.479 478.06 386.098 491.027 354.803C503.995 323.507 510.671 289.922 510.671 255.998C510.671 222.074 503.995 188.488 491.027 157.192C478.06 125.897 459.061 97.5161 435.136 73.6992C411.211 49.8822 382.836 31.1043 351.66 18.4567C320.485 5.80911 287.131 -0.455911 253.536 0.0258133Z" fill="url(#paint0_linear_40002_2)"/>
<defs>
<linearGradient id="paint0_linear_40002_2" x1="-53.376" y1="447.751" x2="418.16" y2="55.8773" gradientUnits="userSpaceOnUse">
<stop offset="0.38" stop-color="#F15B61"/>
<stop offset="1" stop-color="#F7941D"/>
</linearGradient>
</defs>
</svg>
